<?xml version="1.0" encoding="utf-8"?>
<!-- Generator: Adobe Illustrator 27.5.0, SVG Export Plug-In . SVG Version: 6.00 Build 0)  -->
<svg version="1.1" xmlns="http://www.w3.org/2000/svg" xmlns:xlink="http://www.w3.org/1999/xlink" x="0px" y="0px"
	 viewBox="0 0 500 500" style="enable-background:new 0 0 500 500;" xml:space="preserve">
<g id="Background">
	<g>
		<rect style="fill:#FFFEF9;" width="500" height="500"/>
	</g>
</g>
<g id="Objects">
	<path style="fill:#BAE8DF;" d="M309.76,345.236c48.698-7.165,80.7-52.011,97.803-58.076c28.577-10.134,37.955,0,58.486-29.479
		c18.377-26.385,13.101-104.249-55.413-107.306c-30.421-1.357-38.257-83.091-111.373-89.316
		c-42.591-3.626-95.453,33.575-122.102,31.53C63.502,83.87,73.724,162.603,52.172,177.822
		c-29.116,20.561-38.71,59.518-24.069,89.503c31.403,64.317,96.856,39.136,126.775,29.814
		C184.798,287.816,255.627,353.2,309.76,345.236z"/>
	<g>
		<ellipse style="opacity:0.11;fill:#343031;" cx="266.792" cy="435.377" rx="36.39" ry="6.139"/>
		<g>
			<path style="fill:#D68E6E;" d="M249.287,403.269v18.636c0,0,0.103,4.473-3.624,6.461c-4.219,2.25,1.805,6.923,7.786,4.142
				c5.98-2.782,5.272-6.662,5.272-6.662l2.374-20.34L249.287,403.269z"/>
			<path style="fill:#D68E6E;" d="M283.147,402.938v18.636c0,0-0.418,4.473,3.624,6.461c4.291,2.11-1.805,6.923-7.786,4.141
				c-5.981-2.782-5.272-6.661-5.272-6.661l-2.373-20.34L283.147,402.938z"/>
			<path style="fill:#343031;" d="M262.045,412.784l-14.44-0.633l-0.536,14.493c-2.311,2.216-6.77,5.898-11.263,6.331
				c-1.601,4.336,16.327,1.813,21.66-1.085c1.034-0.593,1.505-1.476,1.685-2.385h0.006L262.045,412.784z"/>
			<path style="fill:#343031;" d="M270.824,412.186l14.44-0.633l0.536,14.493c2.312,2.216,6.77,5.898,11.263,6.331
				c1.601,4.336-16.327,1.813-21.66-1.085c-1.034-0.593-1.505-1.476-1.685-2.385h-0.006L270.824,412.186z"/>
			<path style="fill:#00C6A5;" d="M262.964,175.136c0,0-8.009,0.474-13.413,2.703c-24.295,10.021-10.185,16.366-14.46,24.912
				c-3.578,7.152-3.029,20.801-3.029,20.801s15.244-3.027,18.943-2.633c3.699,0.395,5.749-2.783,10.033-0.31
				c4.284,2.473,37.629-12.673,37.629-12.673s4.378-9.23,1.422-14.384c-4.295-7.488-10.429-12.755-18.331-15.642
				c-6.258-2.287-13.24-2.076-13.24-2.076L262.964,175.136z"/>
			<path style="fill:#00C6A5;" d="M292.991,243.883c-2.099-8.374-6.068-12.671-1.972-18.572c6.352-9.152,4.667-10.377,2.539-19.346
				c-0.764-3.219-2.338-7.648-4.101-12.037c-3.149-7.842-6.898-15.558-7.697-16.019c-1.246-0.72-4.792-1.386-4.792-1.386
				c0,12.558-19.013,5.008-19.013,5.008s1.19-5.036,1.462-5.982c-2.729,0.25-7.791,1.602-7.791,1.602s-10.606,19.894-12.594,30.052
				c-1.988,10.158,5.541,21.865,6.605,25c2.726,8.033-1.433,10.487-4.12,19.096c-4.205,13.473-9.117,29.899-7.936,48.381
				l6.675,126.988c0,0,5.408,1.7,24.601,0c0.757-0.067,1.163-123.698,1.936-123.667c1.135,0.046,1.689,121.973,2.852,122
				c9.801,0.227,12.543,1.605,22.987-0.259l10.114-130.49C305.15,264.181,294.855,251.319,292.991,243.883z"/>
			<path style="fill:#FFFEF9;" d="M270.994,204.906c0,0-1.35,32.094-1.35,45.094s3.611,113.079,3.611,113.079s18.25,1.171,31-1.579
				c0,0,4.25-80.75-3.25-107c-2.651-9.279-4.15-28.368-5.005-34.107c-0.854-5.74,12.62-25.637,0.167-35.02
				c-10.616-7.998-19.201-8.851-19.201-8.851L270.994,204.906z"/>
			<path style="fill:#FFFEF9;" d="M261.519,204.906c0,0,1.35,32.094,1.35,45.094s-3.611,113.079-3.611,113.079
				s-18.25,1.171-31-1.579c0,0-4.25-80.75,3.25-107c2.651-9.279,4.15-28.368,5.005-34.107c0.854-5.74-11.675-24.499-0.167-35.02
				c10.616-9.705,21.825-9.705,21.825-9.705L261.519,204.906z"/>
			<path style="fill:#FFFEF9;" d="M258.169,175.668c0,0-25.375,2.731-34.414,27.727c-6.328,17.5,5.48,30.457,5.48,30.457
				s4.997-4.178,7.958-8.849c0,0-1.551-3.119-1.551-6.723c0-3.604,7.496-14.994,7.496-14.994"/>
			<g>
				<path style="fill:#FFBC7D;" d="M250.343,160.49c0,0-5.523-0.482-5.377-5.369c0.048-1.59,1.4-3.311,2.82-3.88"/>
				<path style="fill:#FFBC7D;" d="M260.037,170.791c0,0,0.157,3.962-0.589,5.919c8.606,3.065,17.518,0.29,17.518,0.29l-0.967-8.087
					L260.037,170.791z"/>
				<g>
					<g>
						<g>
							<path style="fill:#FFBC7D;" d="M252.992,132.652c0,0-3.185,5.323-4.954,13.945c-1.953,9.52,4.417,25.591,15.816,26.598
								c13.264,1.171,20.231-3.089,22.589-12.618c0,0,4.521-0.569,4.376-5.455c-0.048-1.59-0.267-2.963-1.687-3.532
								c0,0,4.372-13.688,1.473-18.113C287.707,129.052,265.402,116.988,252.992,132.652z"/>
							<path style="fill:#E44039;" d="M290.442,131.942c5.304,8.518,2.752,24.14,0.275,24.591c0.222-1.805-0.275-3.429-1.186-1.805
								c-2.236,2.642-3.347,2.11-3.852,1.181c-0.959-1.767-1.115-7.173-8.045-8.584c-11.496-2.342-18.481-6.204-21.806-7.696
								c-4.172,10.599-8.171,13.242-7.633,16.775c0.188,1.232-3.364-6.504-3.228-12.798c0.15-6.971,2.969-15.304,10.832-19.78
								C264.203,119.041,282.242,118.773,290.442,131.942z"/>
							<path style="fill:#F49C84;" d="M268.896,158.283c-0.083,0.364-1.124,0.693-2.336,0.422c-1.095-0.245-1.937-1.02-1.646-1.605
								c0.12-0.241,1.754-4.522,2.434-6.308c0.08-0.209,0.385-0.176,0.418,0.046L268.896,158.283z"/>
							<g>
								<path style="fill:#FFFFFF;" d="M268.605,165.326c-5.901,0.647-5.742-4.377-5.595-4.607c0.145-0.23,0.451-0.299,0.681-0.15
									c2.712,1.731,6.806,0.62,7.41,0.236c0.228-0.145,0.516-0.163,0.696,0.041C271.979,161.049,272.127,164.939,268.605,165.326z
									"/>
							</g>
						</g>
						<path style="opacity:0.2;fill:#FF8157;" d="M280.628,154.82c0.059,0.916-0.943,1.726-2.237,1.81
							c-1.295,0.083-2.392-0.592-2.451-1.508c-0.059-0.916,0.943-1.726,2.237-1.81C279.473,153.228,280.569,153.904,280.628,154.82z
							"/>
						<path style="opacity:0.2;fill:#FF8157;" d="M258.173,154.82c0.059,0.916-0.943,1.726-2.238,1.809
							c-1.295,0.083-2.392-0.592-2.45-1.508c-0.059-0.916,0.943-1.726,2.237-1.81C257.016,153.228,258.114,153.904,258.173,154.82z"
							/>
					</g>
				</g>
				<path style="opacity:0.07;fill:#343031;" d="M260.047,172.188c0,0,8.352,1.245,12.778,0.712
					c2.954-0.355,3.473-0.712,3.473-0.712s-3.293,3.361-16.384,2.294L260.047,172.188z"/>
				<path style="fill:#E44039;" d="M283.555,122.27c0,7.683-6.228,13.911-13.911,13.911c-7.683,0-13.911-6.228-13.911-13.911
					c0-7.683,6.228-13.911,13.911-13.911C277.327,108.359,283.555,114.587,283.555,122.27z"/>
				<path style="fill:#112D44;" d="M257.958,151.761c0.016,0.71,0.444,1.276,0.954,1.264c0.511-0.012,0.911-0.597,0.895-1.307
					c-0.017-0.71-0.444-1.276-0.954-1.264C258.343,150.466,257.942,151.051,257.958,151.761z"/>
				<path style="fill:#112D44;" d="M274.855,151.761c0.016,0.71,0.444,1.276,0.954,1.264c0.511-0.012,0.911-0.597,0.895-1.307
					c-0.017-0.71-0.444-1.276-0.954-1.264C275.239,150.466,274.838,151.051,274.855,151.761z"/>
			</g>
			<path style="opacity:0.07;fill:#343031;" d="M289.495,203.755c0,0,11.669,5.828,10.027,9.92
				c-2.834,7.061,0.233,8.671,0.233,13.742c0,0.861,0.168,3.815,0,4.624c0,0.513-9.842,2.453-12.712,3.713
				c-4.57,2.934-7.706,3.106-12.809,4.976c-13.132,0-6.182-8.259,3.753-12.998c7.313-3.488,12.821-5.752,15.508-6.812
				c0.939-0.37,1.201-1.421,0.839-2.364C291.547,211.292,289.495,203.755,289.495,203.755z"/>
			<g>
				<g>
					<path style="fill:#CA542E;" d="M233.225,190.772l45.859-0.563c1.115,0.009,2.018,0.908,2.033,2.023l0.484,62.915
						c0.015,1.138-0.9,2.071-2.039,2.076l-45.732,0.245c-1.127,0.006-2.048-0.899-2.06-2.026l-0.611-62.598
						C231.146,191.698,232.078,190.763,233.225,190.772z"/>
				</g>
				<g>
					<g>
						<path style="fill:#71A4A7;" d="M253.029,188.978c0.081-2.56,2.024-4.575,4.34-4.502c0.14,0.004,0.279,0.017,0.415,0.036
							c-0.294-0.083-0.6-0.134-0.916-0.145c-2.316-0.073-4.259,1.942-4.34,4.502c-0.076,2.405,1.518,4.433,3.631,4.731
							C254.301,193.078,252.959,191.188,253.029,188.978z"/>
						<path style="fill:#C7EFEA;" d="M266.29,187.898l-4.782-0.151l-0.196,0.316c-0.379-1.859-1.773-3.303-3.528-3.55
							c-0.136-0.019-0.275-0.032-0.415-0.036c-2.089-0.066-3.87,1.57-4.259,3.77l-0.87,0.049l-4.53-0.143
							c-1.72-0.054-3.159,1.296-3.214,3.016l-0.158,4.978l24.814-0.167l0.154-4.866C269.361,189.392,268.01,187.953,266.29,187.898z
							 M260.909,188.712C260.899,188.516,260.899,188.516,260.909,188.712L260.909,188.712z M260.768,187.766 M258.223,184.669
							c-0.036-0.015-0.071-0.032-0.108-0.046C258.152,184.637,258.187,184.654,258.223,184.669z M258.866,185.01
							c-0.042-0.027-0.083-0.056-0.126-0.081C258.782,184.954,258.824,184.982,258.866,185.01z M255.14,189.045
							c0.04-1.271,1.005-2.272,2.155-2.236c0.122,0.004,0.241,0.022,0.356,0.048c0.695,0.39,1.16,1.198,1.131,2.119
							c-0.04,1.271-1.005,2.272-2.155,2.236c-0.122-0.004-0.241-0.021-0.356-0.048C255.576,190.774,255.111,189.966,255.14,189.045z
							"/>
					</g>
					<path style="fill:#71A4A7;" d="M257.651,186.857c0.695,0.39,1.16,1.198,1.131,2.119c-0.04,1.271-1.005,2.272-2.155,2.236
						c-0.122-0.004-0.241-0.021-0.356-0.048c0.264,0.149,0.561,0.239,0.878,0.249c1.15,0.036,2.115-0.965,2.155-2.236
						C259.34,188.041,258.625,187.076,257.651,186.857z"/>
				</g>
			</g>
			<path style="fill:#FFBC7D;" d="M283.774,224.124c-1.137-0.748-2.432-0.574-2.432-0.574s0.055,1.969,0,2.431
				c-0.167,1.391-6.722,2.545-7.737,2.62c-2.563,0.203-3.243,0.639-3.316,1.03c-0.073,0.391-0.142,1.143,1.608,1.146
				c1.74,0.021,4.61-0.297,4.61-0.297s-6.9,2.105-6.924,3.439c0.003,1.074,1.085,0.818,2.292,0.49
				c1.193-0.302,3.718-1.17,4.636-1.414c0.949-0.244,0.387,0.863-2.69,1.889c-1.312,0.437-2.677,0.859-2.677,0.859
				s-1.553,0.896-0.073,1.315c1.468,0.398,4.517-0.195,6.868-0.96c1.652-0.538,2.17,0.034-0.286,0.839
				c-2.214,0.71-2.52,0.813-3.13,1.156c-1.746,0.983-0.672,1.548,0.322,1.356c3.573-0.69,6.436-1.628,9.323-2.982
				c0.858-0.403,1.539-1.1,1.905-1.974C287.043,232.176,288.417,227.179,283.774,224.124z"/>
			<path style="fill:#FFFEF9;" d="M299.557,188.712c0,0,11.651,20.85,12.906,29.032c2,13.036-26.39,16.749-26.39,16.749
				s1.827-4.779-1.134-9.45c0,0,11.061-3.044,11.061-4.651c0-3.604-8.245-20.244-8.245-20.244"/>
			<path style="fill:#FFBC7D;" d="M229.63,221.509c1.137-0.748,2.432-0.574,2.432-0.574s-0.055,1.969,0,2.431
				c0.167,1.391,6.722,2.545,7.737,2.62c2.563,0.203,3.243,0.639,3.316,1.03c0.073,0.391,0.142,1.143-1.608,1.146
				c-1.74,0.021-4.61-0.297-4.61-0.297s6.9,2.105,6.924,3.439c-0.003,1.074-1.085,0.818-2.292,0.49
				c-1.193-0.302-3.718-1.17-4.636-1.414c-0.949-0.244-0.387,0.863,2.69,1.889c1.312,0.437,2.677,0.859,2.677,0.859
				s1.553,0.896,0.073,1.315c-1.468,0.398-4.517-0.195-6.868-0.96c-1.652-0.538-2.17,0.034,0.286,0.839
				c2.214,0.71,2.52,0.813,3.13,1.157c1.747,0.983,0.672,1.548-0.322,1.356c-3.573-0.69-6.436-1.628-9.323-2.982
				c-0.858-0.403-1.539-1.1-1.905-1.974C226.361,229.561,224.987,224.563,229.63,221.509z"/>
		</g>
	</g>
	<g>
		<ellipse style="opacity:0.11;fill:#343031;" cx="114.382" cy="446.65" rx="29.047" ry="6.139"/>
		<path style="fill:#343031;" d="M118.155,147.394c0,0-7.777-25.093-31.008-20.603c-7.791,0.876-19.95,9.256-21.373,20.603
			c-3.058,24.384-24.886,29.988-25.645,55.186c-0.909,30.194,27.679,49.962,60.026,30.819c14.9-8.818,41.905-18.02,25.099-52.92
			C119.319,168.154,118.155,147.394,118.155,147.394z"/>
		<path style="fill:#FBCDB4;" d="M104.898,186.356c0,0,29.273,5.532,48.753-2.102c9.037-3.542,21.231-8.706,21.231-8.706
			s6.802,4.351,3.124,8.874c-3.679,4.523-44.911,23.281-64.261,17.945c-6.798-1.875-12.805-5.063-12.805-5.063L104.898,186.356z"/>
		<path style="fill:#00C6A5;" d="M107.616,267.428c0,0-32.55,35.955,5.715,98.044c0,0,1.368,53.715,3.97,72.403l9.344-1.301
			c0,0,16.206-67.363,17.595-75.773c5.868-35.529,6.493-56.47-6.132-86.482L107.616,267.428z"/>
		<path style="fill:#343031;" d="M127.002,435.377c0,0,6.339,7.367,12.523,7.963c3.005,2.346-16.555,3.397-21.649,0.629
			c-2.922-1.677-0.237-7.439-0.237-7.439L127.002,435.377z"/>
		<path style="fill:#00C6A5;" d="M78.375,290.074c-0.411,23.924,9.175,51.592,6.25,63.243c-9.453,37.658,1.641,72.253,4.871,85.001
			l11.367-0.545c0,0,18.537-77.289,19.164-85.79c0.627-8.501,9.684-61.272-12.773-79.108
			C107.253,272.876,78.73,269.415,78.375,290.074z"/>
		<path style="fill:#343031;" d="M100.012,437.634c0,0,5.95,7.684,12.095,8.599c2.879,2.498-16.708,2.537-21.652-0.489
			c-2.832-1.826,0.147-7.442,0.147-7.442L100.012,437.634z"/>
		<path style="fill:#00C6A5;" d="M79.769,181.875c2.653-1.822,9.582-1.344,14.364,0.348c5.523,0.96,15.552,4.957,21.856,4.373
			c5.346,1.741,4.478,17.302,4.478,17.302h-1.016c0.763,1.821,2.097,2.417,2.756,2.89c8.194,5.886,4.175,13.826,2.186,19.047
			c-1.989,5.222,9.949,32.82,17.755,48.188c1.74,2.362-19.804,34.119-66.344,18.593c-1.119-17.405,4.236-58.345-1.702-70.065
			C67.434,209.392,65.622,191.594,79.769,181.875z"/>
		<path style="fill:#FBCDB4;" d="M110.162,143.751c0.394-1.383,5.732,7.374,5.689,19.678c-0.12,3.196-1.282,8.254-3.375,10.683
			c-3.302,3.832-7.631,5.896-11.862,7.237c-1.321,0.419-1.379,4.655-2.607,4.861c-7.252,1.212-13.545-5.52-13.545-5.52
			s2.119-2.7,2.326-4.295C82.676,172.534,109.113,147.427,110.162,143.751z"/>
		<g>
			<g>
				<g>
					<path style="fill:#FBCDB4;" d="M109.835,139.973c0,0,3.541,4.749,6.056,12.771c2.777,8.857,0.038,24.425-12.455,26.802
						c-12.493,2.377-19.083-3.769-22.684-9.804c0,0-4.351-0.103-4.685-4.76c-0.109-1.515-0.033-2.841,1.261-3.519
						c0,0-5.478-12.584-3.152-17.068C76.502,139.911,96.529,126.291,109.835,139.973z"/>
					<path style="fill:#343031;" d="M84.461,128.651c-3.246,1.123-8.049,2.93-11.478,12.086c-3.361,8.975-1.354,23.282,0.263,22.388
						c4.045-2.238,6.41-2.28,7.417-0.644c1.006,1.636,3.094-4.113,9.541-6.124c10.696-3.337,18.89-9.482,21.905-11.222
						c5.689,10.274,4.819,14.325,4.754,15.514c-0.065,1.189,2.394-5.076,1.657-11.043c-0.817-6.609-4.486-17.328-12.494-20.578
						C91.525,123.142,84.461,128.651,84.461,128.651z"/>
					<path style="fill:#F49C84;" d="M101.728,165.405c0.114,0.337,1.134,0.55,2.261,0.175c1.017-0.339,1.742-1.156,1.409-1.684
						c-0.137-0.218-2.104-4.127-2.923-5.758c-0.096-0.191-0.383-0.13-0.393,0.084L101.728,165.405z"/>
					<path style="fill:#45413D;" d="M111.409,157.409c-0.016,0.71-0.444,1.276-0.954,1.264c-0.511-0.012-0.911-0.597-0.895-1.307
						c0.017-0.71,0.444-1.276,0.954-1.264C111.025,156.115,111.426,156.699,111.409,157.409z"/>
					<path style="fill:#45413D;" d="M95.459,159.636c0.012,0.71-0.392,1.292-0.903,1.301c-0.511,0.009-0.934-0.56-0.946-1.27
						c-0.012-0.71,0.392-1.292,0.903-1.301C95.024,158.357,95.447,158.926,95.459,159.636z"/>
					<g>
						<path style="fill:#FFFFFF;" d="M102.749,171.658c5.658,0.365,4.969-4.304,4.807-4.508c-0.16-0.204-0.457-0.24-0.662-0.077
							c-2.409,1.907-7.052,0.52-7.165,0.438c-0.208-0.154-0.506-0.105-0.658,0.106C98.919,167.828,99.152,171.276,102.749,171.658z"
							/>
					</g>
					<path style="opacity:0.2;fill:#FF8157;" d="M90.245,163.249c0.033,0.876,1.063,1.549,2.301,1.503
						c1.238-0.046,2.215-0.794,2.182-1.67c-0.033-0.876-1.063-1.549-2.301-1.503C91.19,161.625,90.213,162.373,90.245,163.249z"/>
					<path style="opacity:0.2;fill:#FF8157;" d="M111.504,160.311c0.033,0.876,1.063,1.549,2.301,1.503
						c1.238-0.046,2.215-0.794,2.182-1.67c-0.033-0.876-1.063-1.549-2.301-1.503C112.449,158.687,111.471,159.435,111.504,160.311z"
						/>
				</g>
			</g>
		</g>
		<path style="opacity:0.07;fill:#343031;" d="M73.745,203.898c0,0-0.435,8.57,3.722,13.879c2.661,3.398,3.83,5.144,3.83,5.144
			l3.928-3.155l-1.415-1.596l-1.974,1.746C81.837,219.915,73.033,209.463,73.745,203.898z"/>
		<path style="opacity:0.07;fill:#343031;" d="M123.343,298.727c0,0,1.341,20.353,2.108,37.354
			c0.34,7.537-11.598,46.046-11.598,46.046s14.534-27.946,14.534-45.658C128.387,329.566,123.343,298.727,123.343,298.727z"/>
		<path style="opacity:0.07;fill:#343031;" d="M100.614,181.349c-0.916-0.107-9.002-1.247-11.707-2.951
			c0,0,1.017,2.126,10.763,4.253C99.814,182.155,99.969,181.728,100.614,181.349z"/>
		<g>
			<path style="fill:#FFFFFF;" d="M77.478,178.641c-0.48,0.676-0.33,1.613,0.329,2.116c0.343,0.262,0.737,0.479,1.097,0.479
				c0.902,0,1.901-1.582,1.688-2.606C80.412,177.772,78.639,177.004,77.478,178.641z"/>
			<g>
				<path style="fill:#505155;" d="M106.641,205.39c-1.862,0-4.26-0.595-7.286-2.342c-8.662-5.001-21.058-17.09-21.582-17.602
					c-0.053-0.05-1.499-1.446-1.476-3.262c0.013-1.021,0.468-1.943,1.351-2.742c0.341-0.309,0.868-0.282,1.177,0.06
					c0.308,0.341,0.281,0.868-0.06,1.176c-0.531,0.479-0.793,0.976-0.802,1.519c-0.019,1.083,0.959,2.042,0.969,2.051
					c0.133,0.13,12.777,12.461,21.256,17.356c3.767,2.174,7.027,2.686,9.184,1.443c1.43-0.826,2.319-2.45,2.319-4.238
					c0-3.967-8.075-12.148-9.265-13.338c-0.39-0.39-2.161-1.724-3.2-1.445c0.11-0.649,0.316-1.041,0.51-1.589
					c1.205,0,3.073,1.061,3.868,1.856c1.75,1.749,9.753,10.562,9.753,14.516c0,2.381-1.208,4.558-3.152,5.68
					C109.345,204.986,108.174,205.39,106.641,205.39z"/>
			</g>
			<g>
				<g>
					<path style="fill:#C6E5E4;" d="M119.321,264.155c0.27,3.904-2.293,7.262-5.725,7.499c-3.432,0.238-6.433-2.735-6.704-6.639
						c-0.27-3.904,2.293-7.262,5.725-7.499C116.05,257.279,119.051,260.251,119.321,264.155z"/>
					<path style="fill:#474344;" d="M120.036,264.259c0.205,2.96-1.738,5.505-4.34,5.686c-2.602,0.18-4.877-2.073-5.082-5.033
						c-0.205-2.96,1.738-5.505,4.34-5.686C117.556,259.046,119.831,261.3,120.036,264.259z"/>
				</g>
				<path style="fill:#505155;" d="M119.915,264.366c0.138,1.991-1.169,3.703-2.919,3.824c-1.75,0.121-3.28-1.395-3.418-3.385
					c-0.138-1.991,1.169-3.703,2.919-3.824C118.247,260.86,119.777,262.375,119.915,264.366z"/>
			</g>
			<path style="fill:none;stroke:#505155;stroke-width:1.666;stroke-linecap:round;stroke-miterlimit:10;" d="M108.625,204.268
				c0,0,2.444,7.221,2.82,13.511c0.376,6.29-3.722,27.169,0.456,35.814c2.115,4.376,4.086,7.679,4.086,7.679"/>
		</g>
		<path style="fill:#FBCDB4;" d="M170.633,222.946c-13.764,6.933-54.083,24.338-83.012-1.174
			c-16.124-14.22-10.955-20.316-5.998-21.357c3.178-0.667,6.224,1.291,8.621,3.483c6.093,5.571,22.564,17.277,35.24,19.146
			c11.374,1.677,42.563-8.496,42.563-8.496"/>
		<path style="fill:#00C6A5;" d="M97.755,205.83l-15.918,14.086c0,0-10.548-15.755-7.49-20.554
			c3.058-4.799,5.118-9.538,11.426-6.094C87.567,194.247,97.755,205.83,97.755,205.83z"/>
		<g>
			<g>
				
					<line style="fill:none;stroke:#606060;stroke-width:4;stroke-linecap:round;stroke-linejoin:round;stroke-miterlimit:10;" x1="176.328" y1="130.792" x2="176.328" y2="433.844"/>
				<path style="fill:none;stroke:#606060;stroke-width:4;stroke-linecap:round;stroke-linejoin:round;stroke-miterlimit:10;" d="
					M202.777,446.801v-2.412c0-4.894-3.967-8.861-8.861-8.861H160.57c-4.894,0-8.861,3.967-8.861,8.861v2.412"/>
				<path style="fill:none;stroke:#606060;stroke-width:4;stroke-linecap:round;stroke-linejoin:round;stroke-miterlimit:10;" d="
					M208.765,125.013c0,0,2.938,11.32-7.375,11.558c-7.33,0.169-7.083-7.086-7.083-7.086h-34c0,0-1.39,6.848-6.25,6.848
					c-4.861,0-7.667-3.792-7.667-11.32"/>
			</g>
			<g>
				<path style="opacity:0.81;fill:#FFFEF9;" d="M190.527,142.876c0.85-1.715,2.554-2.834,4.468-2.891
					c4.976-0.149,14.809-0.015,17.956,3.132c3.755,3.755,2.117,37.209,1.662,45.316c-0.06,1.072-0.801,1.978-1.84,2.246
					c-4.369,1.128-16.011,3.587-23.595,0.113c-0.722-0.331-1.25-0.971-1.415-1.747C186.594,183.558,182.215,159.641,190.527,142.876
					z"/>
				<path style="fill:#FFFEF9;" d="M201.339,134.61c0.213-0.101,0.444-0.156,0.684-0.156c1.088,0,1.97,1.124,1.97,2.511
					c0,1.387-0.882,2.511-1.97,2.511c-0.722,0-1.173-0.396-1.516-0.921l-1.201-0.127c0.392,1.599,1.506,2.471,2.889,2.471
					c1.704,0,3.085-1.761,3.085-3.933s-1.381-3.933-3.085-3.933c-0.852,0-1.758,0.516-2.182,1.462L201.339,134.61z"/>
				<path style="fill:#FFFEF9;" d="M186.336,156.966c0,0,6.69,2.284,15.758,1.839c5.487-0.269,8.682-2.136,8.682-2.136
					s0.271,17.904-0.292,18.879c-0.563,0.974-14.625,4.389-24.734-1.587C185.75,173.961,185.046,161.031,186.336,156.966z"/>
			</g>
		</g>
		<path style="fill:#FBCDB4;" d="M178.007,184.422c0,0-6.605-1.699-6.048-3.03c0.557-1.331,5.159,0.361,5.159,0.361
			s-5.58-1.953-5.137-3.233c0.344-0.993,6.121,0.952,6.121,0.952s-5.862-2.332-4.993-3.692c0.603-0.943,6.253,0.771,6.253,0.771
			s-5.093-2.112-4.921-3.004c0.312-1.618,6.23,0.39,6.23,0.39s-1.223-2.277-0.677-2.857c0.545-0.58,2.441,0.276,3.341,2.651
			C184.233,176.105,183.119,185.061,178.007,184.422z"/>
		<path style="fill:#FBCDB4;" d="M178.712,209.405c0,0,1.829-0.351,2.698,1.344c1.611,3.144,2.715,6.481,1.448,8.676
			c-1.267,2.195-12.225,3.521-12.225,3.521l-2.586-8.398l4.686-9.631c0,0,1.651-1.056,1.651,0.383c0,1.053,0.037,2.22,0.037,2.22
			S174.077,210.256,178.712,209.405z"/>
		<path style="opacity:0.07;fill:#343031;" d="M78.362,293.42c0,0,37.877,8.97,61.533-14.686l0.512,1.393
			c0,0-20.356,22.623-62.045,14.873V293.42z"/>
	</g>
	<g>
		<path style="opacity:0.11;fill:#343031;" d="M412.471,439.25c0,3.39-13.005,6.139-29.047,6.139s-29.047-2.748-29.047-6.139
			c0-3.39,13.005-6.139,29.047-6.139S412.471,435.86,412.471,439.25z"/>
		<g>
			<path style="fill:#343031;" d="M354.14,434.967c6.862-0.546,14.659-5.12,14.659-5.12s-10.653-81.519-9.469-88.465
				c1.858-10.901,0.987-31.236,7.847-52.919l30.263,3.63c0,0,3.805,1.883-15.414,52.236c0,0-3.75,5.698-1.155,18.552
				c4.532,22.443-1.969,51.097-1.209,70.163c-0.045,1.252-0.437,2.407-1.551,3.022C372.417,439.037,350.768,437.509,354.14,434.967z
				"/>
			<path style="fill:#343031;" d="M393.771,296.357l21.367,21.821c0,0-3.084,6.586-10.951,30.445c0,0,0.262,6.641,2.879,16.166
				c4.195,15.271-0.316,43.255,2.811,73.124c0.022,1.388-0.342,2.707-1.563,3.38c-5.694,2.971-27.343,1.443-23.971-1.099
				c6.862-0.546,14.798-6.369,14.798-6.369s-17.339-71.003-17.97-77.508C380.442,348.811,376.607,321.337,393.771,296.357z"/>
			<path style="fill:#00C6A5;" d="M362.298,271.25l32.776-14.797l16.08,2.383c0,0,5.739,2.778,9.85,23.481
				c3.006,15.138-6.214,67.467-12.079,78.859c-0.84,1.631,5.086,73.753,2.416,74.403c-3.053,0.742-13.408,3.418-17.534-1.582
				c-7.539-30.132-9.916-57.803-14.009-68.074c-1.253-3.144-1.224-44.316-1.224-44.316s7.651,78.888,4.041,107.667
				c-1.076,3.113-16.266,1.346-16.566,1.287c-3.209-0.633-8.723-64.495-10.004-73.565
				C353.796,341.075,362.298,271.25,362.298,271.25z"/>
			<path style="opacity:0.07;fill:#343031;" d="M379.144,363.418c0,0,0.727-62.036,0.651-63.243
				c-0.355-5.608-1.729-9.123-1.729-9.123l-1.381,71.288l6.959,19.057L379.144,363.418z"/>
			<g>
				<path style="fill:#FFFFFF;" d="M413.483,173.901c0.458,0.646,0.315,1.541-0.314,2.021c-0.327,0.25-0.704,0.458-1.048,0.458
					c-0.862,0-1.816-1.511-1.612-2.49C410.68,173.07,412.373,172.337,413.483,173.901z"/>
				<g>
					<path style="fill:#00C6A5;" d="M360.352,212.322c6.257,0.547,11.441,0.385,11.441,0.385l12.708-33.552
						c0,0-11.085,6.277-19.153,8.338"/>
					<path style="fill:#D68E6E;" d="M330.651,153.198l8.927-2.381l3.644,25.801c1.009,2.729,3.678,8.832,8.085,11.149
						c4.058,2.134,8.869,2.606,13.71,1.369l-3.439,17.091c-6.073-0.53-17.513-4.833-21.614-7.844
						c-5.896-4.329-9.856-8.698-10.651-16.317C328.422,173.532,330.651,153.198,330.651,153.198z"/>
				</g>
				<g>
					<g>
						<path style="fill:#A53F28;" d="M381.977,141.829l-41.041-17.258c-0.998-0.42-2.149,0.035-2.59,1.024l-24.468,54.906
							c-0.45,1.01,0.009,2.193,1.022,2.634l41.101,17.919c1.003,0.438,2.172-0.017,2.615-1.018l24.408-55.567
							C383.477,143.451,383.004,142.26,381.977,141.829z"/>
						<path style="fill:#CA542E;" d="M381.017,141.349l-40.698-18.091c-0.998-0.42-2.149,0.035-2.59,1.025l-24.562,55.945
							c-0.45,1.01,0.009,2.193,1.022,2.634l40.706,17.759c1.003,0.438,2.172-0.017,2.615-1.018l24.553-55.613
							C382.516,142.972,382.044,141.781,381.017,141.349z"/>
					</g>
					<path style="opacity:0.19;fill:#112129;" d="M378.701,144.013l-38.809-16.738c0,0-19.724,45.859-24.131,51.803l38.348,16.926
						C354.109,196.005,366.837,170.749,378.701,144.013z"/>
					<path style="fill:#FFFFFF;" d="M377.629,143.738l-37.859-16.365c0,0-19.866,44.915-24.416,49.906l38.08,17.554
						C353.433,194.833,369.035,168.514,377.629,143.738z"/>
					<g>
						<path style="fill:#71A4A7;" d="M365.509,132.045l4.097,1.609c1.556,0.611,2.322,2.368,1.71,3.924l-1.764,4.52l-0.511-0.217
							l-21.567-9.467l1.729-4.4c0.611-1.556,2.368-2.321,3.924-1.71l4.324,1.699l0.59,3.924l2.048,1.936c0,0,2.375-0.762,2.419-0.95
							c0.044-0.187,0.729-1.409,0.729-1.409L365.509,132.045"/>
						<g>
							<path style="fill:#71A4A7;" d="M364.036,132.153c0.91-2.315-0.051-4.858-2.145-5.681c-0.127-0.05-0.255-0.092-0.384-0.127
								c0.294,0.039,0.587,0.11,0.873,0.222c2.094,0.823,3.054,3.366,2.145,5.681c-0.854,2.174-3.054,3.373-5.054,2.828
								C361.329,135.323,363.251,134.151,364.036,132.153z"/>
							<path style="fill:#B6D6D3;" d="M348.696,127.814l-1.729,4.4l22.074,9.666l1.769-4.502c0.611-1.556-0.155-3.313-1.71-3.924
								l-4.097-1.609l-0.758-0.377c0.497-2.112-0.465-4.254-2.354-4.996c-0.127-0.05-0.255-0.092-0.384-0.127
								c-1.661-0.452-3.458,0.301-4.509,1.814l-0.054-0.357l-4.324-1.699C351.064,125.493,349.307,126.258,348.696,127.814z
								 M357.108,128.893C357.192,128.722,357.192,128.722,357.108,128.893L357.108,128.893z M357.597,128.104 M361.169,126.317
								c-0.038-0.002-0.076,0-0.114,0C361.093,126.317,361.131,126.315,361.169,126.317z M360.496,126.35
								c-0.048,0.007-0.096,0.016-0.144,0.024C360.4,126.366,360.447,126.356,360.496,126.35z M360.306,132.86
								c-0.113-0.021-0.226-0.051-0.336-0.094c-1.04-0.409-1.517-1.672-1.065-2.821c0.327-0.833,1.052-1.375,1.822-1.456
								c0.113,0.021,0.226,0.051,0.336,0.094c1.04,0.408,1.517,1.671,1.065,2.821C361.801,132.236,361.076,132.778,360.306,132.86z"
								/>
						</g>
						<path style="fill:#71A4A7;" d="M360.726,128.488c-0.77,0.082-1.495,0.624-1.822,1.456c-0.452,1.15,0.025,2.413,1.065,2.821
							c0.11,0.043,0.223,0.073,0.336,0.094c-0.293,0.031-0.592-0.002-0.879-0.115c-1.04-0.409-1.517-1.672-1.065-2.821
							C358.766,128.896,359.774,128.31,360.726,128.488z"/>
					</g>
				</g>
				<path style="fill:#D68E6E;" d="M328.735,141.914c1.525,0.386,5.43,2.929,5.064,3.842c-1.13,2.814-5.535-1.258-5.535-1.258
					s4.253,3.563,3.556,4.634c-0.839,1.288-5.39-2.061-5.39-2.061s4.238,3.643,3.458,5.584c-0.614,1.528-5.238-2.721-5.238-2.721
					s3.835,3.859,3.135,5.077c-1.148,1.998-4.96-3.006-5.667-4.405C320.737,147.873,323.632,141.362,328.735,141.914z"/>
				<path style="fill:#00C6A5;" d="M414.863,180.961c10.984,5.573,14.258,19.362,14.258,24.322c0,24.394-4.676,77.036-4.676,77.036
					s-53.557,4.663-64.985-3.8c-0.63-16.025,6.386-48.355,9.837-70.053c0.793-4.986,3.188-12.246,5.162-15.98
					c3.212-6.073,6.076-11.524,12.285-14.465l3.986-1.888C390.729,176.131,397.998,172.405,414.863,180.961z"/>
				<path style="fill:#D68E6E;" d="M418.463,151.652c-1.814-7.186-19.487-20.41-25.216-19.611
					c-5.729,0.799-12.913,16.932-11.342,32.73c0.382,3.842,3.944,7.014,3.865,6.958c0.231,0.317,0.461,0.609,0.691,0.912
					c1.088,2.656-0.888,8.32,1.687,9.948c2.542,1.606,4.831,1.862,8.526,1.991c9.55-0.205,15.598-2.88,14.813-5.229
					c-0.874-2.611-0.702-4.872-0.702-4.872C413.304,161.784,419.348,155.154,418.463,151.652z"/>
				<g>
					<path style="fill:#3A3736;" d="M382.129,135.894c2.102,7.814,3.758,9.588,20.78,10.516c1.886,0.103,9.281,2.047,7.979,10.309
						c-0.27,1.716-0.677,2.512-2.091,4.559c-2.573,3.721,3.517,5.458,7.042-2.978c0.36-0.861,3.074-0.402,1.566,2.638
						c-1.696,3.419-7.013,10.792-7.013,10.792s6.795-1.367,9.247-4.399c2.452-3.032,5.865-6.854,9.331-15.453
						c3.466-8.599,5.09-18.319-11.568-28.683c-9.92-6.172-19.511-5.507-27.173-3.148
						C382.681,122.369,381.057,131.909,382.129,135.894z M406.535,143.987c0.047-0.001,0.078-0.002,0.078-0.002
						c-0.005,0.05-0.01,0.096-0.015,0.145L406.535,143.987z"/>
					<g>
						<path style="fill:#D68E6E;" d="M387.175,134.152c0,0-3.846,4.86-6.717,13.171c-3.17,9.178-0.775,25.539,12.216,28.401
							c12.992,2.862,18.785-4.207,22.732-10.41c0,0,3.549,0.855,6.994-3.077c1.491-1.701,2.691-4.989,1.385-6.666
							c0,0,2.84-10.963,0.543-15.723C422.032,135.09,401.5,120.245,387.175,134.152z"/>
						<path style="fill:#3A3736;" d="M411.404,123.001c3.36,1.272,10.973,3.382,14.283,13.06c3.244,9.486,0.209,19.354-0.46,21.167
							c-0.739,2.002-1.365-0.456-3.773,0.089c-2.408,0.545-3.372,1.986-4.474,3.666c-1.102,1.68-1.924,2.638-2.573,3.681
							c-0.649,1.042-2.59,0.041-3.106-0.523c-0.516-0.565,2.609-5.076,3.656-8.998c1.028-3.852-4.614-7.634-9.29-9.333
							c-4.676-1.699-17.224-6.636-20.324-8.546c-6.258,10.572-6.172,17.052-6.14,18.297c0.032,1.245-0.664-4.719,0.287-10.937
							c1.053-6.886,3.626-18.388,11.997-21.802C400.433,119.172,411.404,123.001,411.404,123.001z"/>
					</g>
					<g>
						<path style="fill:#FFFFFF;" d="M392.531,168.207c-6.037-1.19-4.499-5.662-4.256-5.885c0.242-0.225,0.623-0.211,0.848,0.035
							c2.648,2.878,7.872,1.319,8.03,1.239c0.292-0.152,0.656-0.031,0.805,0.264C398.109,164.155,397.13,168.444,392.531,168.207z"
							/>
					</g>
					<path style="fill:#3A3736;" d="M382.442,133.647c0,0,6.987,9.498,12.505,11.835c5.703,2.415,16.179,4.007,16.179,4.007
						s-8.848-6.667-10.539-9.359c-1.692-2.692-4.352-4.26-4.352-4.26L382.442,133.647z"/>
					<path style="fill:#C47657;" d="M394.537,159.665c-0.172,0.327-1.25,0.38-2.343-0.186c-0.987-0.511-1.597-1.465-1.171-1.952
						c0.176-0.201,2.82-3.886,3.923-5.425c0.129-0.18,0.413-0.071,0.389,0.149L394.537,159.665z"/>
					<path style="fill:#2D2B2B;" d="M386.313,150.689c-0.098,0.729,0.248,1.378,0.773,1.448c0.525,0.07,1.029-0.464,1.127-1.193
						c0.098-0.729-0.248-1.378-0.773-1.448C386.916,149.426,386.411,149.96,386.313,150.689z"/>
					<path style="fill:#2D2B2B;" d="M402.398,154.835c-0.127,0.725,0.193,1.387,0.715,1.478c0.522,0.091,1.047-0.422,1.174-1.148
						c0.127-0.725-0.193-1.387-0.715-1.478C403.05,153.596,402.525,154.11,402.398,154.835z"/>
					<path style="opacity:0.36;fill:#C47657;" d="M407.111,159.648c-0.175,0.892-1.338,1.415-2.598,1.168
						c-1.26-0.247-2.14-1.171-1.965-2.063c0.175-0.892,1.338-1.415,2.599-1.168C406.406,157.832,407.286,158.756,407.111,159.648z"
						/>
					<path style="opacity:0.36;fill:#C47657;" d="M385.748,153.646c-0.175,0.892-1.338,1.415-2.598,1.168
						c-1.26-0.247-2.14-1.171-1.965-2.063c0.175-0.892,1.338-1.415,2.598-1.168C385.043,151.83,385.923,152.753,385.748,153.646z"/>
				</g>
				<path style="opacity:0.1;fill:#343031;" d="M386.557,172.904c0.512,0.138,6.85,3.206,12.693,2.037
					c5.843-1.169,6.417-1.5,6.417-1.5s-4.313,3.529-10.039,3.529c-5.726,0-8.802-1.895-8.802-1.895S386.811,173.602,386.557,172.904
					z"/>
				<g>
					<path style="fill:#505155;" d="M385.623,199.454c1.779,0,4.069-0.568,6.96-2.238c8.275-4.777,20.117-16.326,20.617-16.815
						c0.051-0.048,1.432-1.381,1.41-3.116c-0.012-0.975-0.447-1.856-1.291-2.619c-0.326-0.295-0.829-0.27-1.124,0.057
						c-0.294,0.326-0.269,0.829,0.057,1.124c0.507,0.458,0.757,0.932,0.766,1.451c0.018,1.035-0.916,1.95-0.926,1.96
						c-0.127,0.124-12.206,11.904-20.306,16.581c-3.598,2.076-6.713,2.566-8.773,1.378c-1.366-0.789-2.215-2.34-2.215-4.049
						c0-3.79,3.817-15.404,4.954-16.541c0.372-0.373,0.75-0.59,1.06-0.717c0.008-0.62,0.033-0.914-0.022-1.663
						c-0.565,0.148-1.405,0.494-2.164,1.254c-1.672,1.671-5.42,13.889-5.42,17.666c0,2.275,1.154,4.354,3.011,5.427
						C383.04,199.069,384.158,199.454,385.623,199.454z"/>
				</g>
				<g>
					<g>
						<path style="fill:#C6E5E4;" d="M373.024,255.098c-0.248,3.585,2.105,6.668,5.257,6.886c3.152,0.218,5.908-2.511,6.156-6.096
							c0.248-3.585-2.105-6.668-5.257-6.887C376.028,248.783,373.272,251.513,373.024,255.098z"/>
						<path style="fill:#474344;" d="M372.367,255.193c-0.188,2.718,1.596,5.055,3.986,5.221s4.479-1.904,4.667-4.622
							c0.188-2.718-1.596-5.056-3.986-5.221C374.645,250.406,372.555,252.475,372.367,255.193z"/>
					</g>
					<path style="fill:#505155;" d="M372.479,255.292c-0.127,1.828,1.074,3.4,2.681,3.512c1.607,0.111,3.012-1.281,3.139-3.109
						c0.126-1.828-1.074-3.4-2.681-3.511C374.011,252.072,372.605,253.463,372.479,255.292z"/>
				</g>
				<path style="opacity:0.07;fill:#343031;" d="M373.373,190.427c0,0-3.585,15.417-4.682,22.28l-1.198-0.074
					C367.494,212.633,370.809,195.209,373.373,190.427z"/>
				<path style="fill:none;stroke:#505155;stroke-width:1.5916;stroke-linecap:round;stroke-miterlimit:10;" d="M383.727,198.383
					c0,0-2.335,6.899-2.694,12.908c-0.36,6.009,3.555,25.955-0.436,34.214c-2.02,4.18-3.904,7.336-3.904,7.336"/>
				<g>
					<path style="opacity:0.07;fill:#343031;" d="M415.131,226.458c0,0-3.542,3.375-11.546,7.417
						c-0.155,0.078-0.906-1.397-1.058-1.303c-3.806,2.329-9.309,4.931-17.241,7.458c-9.991,3.183-21.62-1.957-21.62-1.957
						s3.66-17.211,3.966-20.156c1.141,0.106,7.758,1.481,7.758,1.481l15.267-8.304l-0.567-1.201l10.03-6.485
						c0,0,11.599-9.084,20.404-0.279C428.732,211.337,415.131,226.458,415.131,226.458z"/>
					<path style="fill:#00C6A5;" d="M391.082,210.224l7.592-5.161c0,0,18.625-13.268,24.366-5.559
						c6.935,9.311-1.008,20.117-1.008,20.117s-7.365,7.462-18.532,13.144"/>
					<path style="fill:#D68E6E;" d="M326.706,211.887c0,0,6.259,0.981,7.342,0.115c0.359-0.288,1.198-1.778,1.198-1.778
						s-0.07,1.655,0.423,2.116l14.26,3.551l25.837,4.745l16.152-8.85l10.608,19.291c-4.792,2.439-10.105,4.861-15.502,6.802
						c-17.974,6.466-51.363-12.985-51.365-12.986l-6.418-3.035C325.729,220.744,326.706,211.887,326.706,211.887z"/>
					<path style="fill:#D68E6E;" d="M336.839,212.631c0,0-0.043-0.29-2.713,4.624c-2.712,4.991-2.401,5.24-4.886,4.602
						c-3.034-0.779-7.631-3.214-6.753-6.804c0.877-3.59,3.279-9.064,7.175-8.603c0.599,0.071,1.408,0.114,1.737,0.167
						c1.193,0.19,1.994-1.289,3.311,0.521C336.079,209.022,336.839,212.631,336.839,212.631z"/>
				</g>
				<path style="fill:#F49C84;" d="M344.964,168.913c0,0,16.885-1.201,16.18-8.423c-0.793-8.125-10.68-3.821-10.68-3.821
					s0.303-5.853-3.973-6.215C340.438,149.941,336.464,156.669,344.964,168.913z"/>
			</g>
		</g>
		<path style="opacity:0.07;fill:#343031;" d="M421.372,284.924c0,0-39.996,4.668-60.348-2.69l0.296-2.617
			c0,0,14.068,4.884,59.721,2.964L421.372,284.924z"/>
	</g>
</g>
<g id="Designed_by_Freepik">
	<g>
		<g id="XMLID_319_">
			<g id="XMLID_338_">
				<path id="XMLID_346_" style="fill:#9EB7C7;" d="M260.104,474.403c-0.433,0.443-0.804,0.931-1.108,1.453l-0.466-0.241
					c-0.066-0.298-0.349-0.503-0.658-0.466c-0.331,0.039-0.568,0.339-0.529,0.67c0.039,0.331,0.339,0.567,0.67,0.528
					c0.065-0.008,0.127-0.025,0.184-0.052l0.451,0.233c-0.251,0.555-0.433,1.139-0.539,1.744l0.746,0.132
					c0.23-1.306,0.85-2.507,1.792-3.473L260.104,474.403z"/>
				<path id="XMLID_345_" style="fill:#9EB7C7;" d="M265.592,472.102c-0.171,0-0.341,0.006-0.51,0.017l-0.073-0.626
					c0.188-0.149,0.296-0.389,0.266-0.645c-0.046-0.394-0.402-0.675-0.795-0.628c-0.394,0.046-0.675,0.402-0.629,0.795
					c0.03,0.254,0.189,0.462,0.405,0.564l0.073,0.625c-0.714,0.116-1.403,0.331-2.06,0.646l0.327,0.684
					c0.934-0.446,1.941-0.673,2.995-0.673c0.496,0,0.993,0.053,1.475,0.157l0.161-0.74
					C266.692,472.16,266.143,472.102,265.592,472.102z"/>
				<path id="XMLID_344_" style="fill:#9EB7C7;" d="M272.194,474.648c0.331-0.041,0.566-0.342,0.525-0.672
					c-0.04-0.331-0.342-0.566-0.672-0.526c-0.31,0.038-0.535,0.304-0.53,0.609l-0.416,0.362c-0.418-0.43-0.89-0.813-1.408-1.139
					l-0.403,0.642c1.134,0.714,2.02,1.726,2.563,2.925l0.69-0.313c-0.251-0.554-0.567-1.072-0.942-1.545l0.402-0.351
					C272.064,474.653,272.129,474.656,272.194,474.648z"/>
				<path id="XMLID_343_" style="fill:#9EB7C7;" d="M265.044,482.31c-0.386,0.023-0.774,0.035-1.157,0.035
					c-0.88,0-1.732-0.061-2.478-0.18c-0.391-0.062-0.847-0.155-1.27-0.292c1.046,1.861,3.069,3.125,5.389,3.125
					c2.855,0,5.262-1.916,5.949-4.504c-0.682,0.449-1.506,0.825-2.459,1.123C267.839,481.984,266.464,482.225,265.044,482.31z"/>
				<path id="XMLID_339_" style="fill:#9EB7C7;" d="M265.592,473.617c-3.353,0-6.079,2.666-6.079,5.943
					c0,0.426,0.046,0.85,0.137,1.262c0.674,0.482,2.706,0.89,5.348,0.73c2.879-0.173,5.297-0.957,6.672-2.158
					c-0.005-0.195-0.021-0.39-0.045-0.582C271.244,475.851,268.65,473.617,265.592,473.617z M263.433,480.132
					c-1.021,0-1.85-0.829-1.85-1.85c0-1.02,0.829-1.85,1.85-1.85c1.02,0,1.85,0.83,1.85,1.85
					C265.282,479.303,264.452,480.132,263.433,480.132z M268.17,479.224c-0.75,0-1.36-0.61-1.36-1.36s0.61-1.36,1.36-1.36
					s1.36,0.61,1.36,1.36S268.92,479.224,268.17,479.224z"/>
			</g>
			<path id="XMLID_336_" style="fill:#9EB7C7;" d="M281.596,475.484c-0.295-0.116-0.806-0.309-1.383-0.237
				c-0.551,0.068-0.844,0.341-0.844,1.007v0.866h2.228v1.717h-2.228v5.455h-1.932v-5.455h-1.34v-1.717h1.34v-0.889
				c0-1.68,0.896-2.783,2.568-2.783c0.642,0,1.157,0.122,1.59,0.309V475.484z"/>
			<path id="XMLID_334_" style="fill:#9EB7C7;" d="M286.298,478.816c-0.177-0.029-0.357-0.046-0.526-0.046
				c-0.895,0-1.51,0.548-1.51,1.613v3.908h-1.932v-7.172h1.873v0.784c0.451-0.674,1.14-0.977,2.021-0.977
				c0.414,0,0.848,0.127,1.094,0.336L286.298,478.816z"/>
			<path id="XMLID_331_" style="fill:#9EB7C7;" d="M293.965,480.694c0,0.223-0.015,0.489-0.037,0.651h-5.084
				c0.207,1.036,0.933,1.488,1.843,1.488c0.621,0,1.295-0.252,1.814-0.689l1.132,1.243c-0.813,0.748-1.85,1.088-3.057,1.088
				c-2.198,0-3.723-1.495-3.723-3.752c0-2.258,1.481-3.797,3.627-3.797C292.544,476.928,293.958,478.459,293.965,480.694z
				 M288.851,480.028h3.175c-0.177-0.918-0.732-1.435-1.561-1.435C289.554,478.593,289.021,479.141,288.851,480.028z"/>
			<path id="XMLID_328_" style="fill:#9EB7C7;" d="M301.618,480.694c0,0.223-0.015,0.489-0.037,0.651h-5.084
				c0.207,1.036,0.933,1.488,1.843,1.488c0.621,0,1.295-0.252,1.814-0.689l1.132,1.243c-0.814,0.748-1.851,1.088-3.057,1.088
				c-2.198,0-3.723-1.495-3.723-3.752c0-2.258,1.48-3.797,3.626-3.797C300.197,476.928,301.611,478.459,301.618,480.694z
				 M296.504,480.028h3.176c-0.178-0.918-0.733-1.435-1.563-1.435C297.207,478.593,296.674,479.141,296.504,480.028z"/>
			<path id="XMLID_325_" style="fill:#9EB7C7;" d="M309.964,480.702c0,2.153-1.495,3.775-3.471,3.775
				c-0.963,0-1.644-0.377-2.109-0.933v3.708h-1.925V477.12h1.888v0.792c0.466-0.585,1.154-0.984,2.139-0.984
				C308.469,476.928,309.964,478.548,309.964,480.702z M304.287,480.702c0,1.132,0.748,1.976,1.843,1.976
				c1.14,0,1.851-0.881,1.851-1.976c0-1.096-0.711-1.977-1.851-1.977C305.035,478.726,304.287,479.569,304.287,480.702z"/>
			<path id="XMLID_322_" style="fill:#9EB7C7;" d="M313.067,474.773c0,0.696-0.54,1.229-1.235,1.229c-0.696,0-1.23-0.532-1.23-1.229
				c0-0.695,0.533-1.243,1.23-1.243C312.527,473.53,313.067,474.078,313.067,474.773z M312.809,484.292h-1.932v-7.172h1.932V484.292
				z"/>
			<path id="XMLID_320_" style="fill:#9EB7C7;" d="M316.032,479.673l2.701-2.553h2.369l-3.479,3.375l3.501,3.797h-2.376
				l-2.716-2.901v2.901h-1.932v-10.658h1.932V479.673z"/>
		</g>
		<g>
			<path style="fill:#9EB7C7;" d="M184.413,484.227v-1.055c-0.527,0.718-1.392,1.23-2.388,1.23c-1.846,0-3.149-1.406-3.149-3.705
				c0-2.257,1.289-3.721,3.149-3.721c0.952,0,1.816,0.468,2.388,1.244v-3.764h1.099v9.77H184.413z M184.413,482.308V479.1
				c-0.396-0.615-1.245-1.143-2.124-1.143c-1.421,0-2.27,1.172-2.27,2.74c0,1.566,0.85,2.724,2.27,2.724
				C183.167,483.421,184.017,482.923,184.413,482.308z"/>
			<path style="fill:#9EB7C7;" d="M186.932,480.682c0-2.05,1.465-3.705,3.486-3.705c2.139,0,3.398,1.67,3.398,3.793v0.279h-5.727
				c0.088,1.332,1.025,2.445,2.549,2.445c0.806,0,1.626-0.322,2.183-0.894l0.527,0.718c-0.703,0.703-1.655,1.084-2.813,1.084
				C188.44,484.402,186.932,482.894,186.932,480.682z M190.403,477.885c-1.509,0-2.256,1.273-2.314,2.357h4.643
				C192.718,479.188,192.015,477.885,190.403,477.885z"/>
			<path style="fill:#9EB7C7;" d="M194.607,483.289l0.571-0.791c0.469,0.542,1.362,1.011,2.329,1.011c1.084,0,1.67-0.513,1.67-1.216
				c0-1.713-4.38-0.659-4.38-3.281c0-1.098,0.952-2.035,2.637-2.035c1.201,0,2.051,0.453,2.622,1.025l-0.513,0.762
				c-0.424-0.514-1.201-0.894-2.109-0.894c-0.967,0-1.567,0.483-1.567,1.112c0,1.553,4.379,0.527,4.379,3.281
				c0,1.186-0.952,2.139-2.783,2.139C196.306,484.402,195.325,484.051,194.607,483.289z"/>
			<path style="fill:#9EB7C7;" d="M201.477,475.409c0-0.41,0.337-0.747,0.732-0.747c0.41,0,0.747,0.337,0.747,0.747
				c0,0.41-0.337,0.731-0.747,0.731C201.814,476.141,201.477,475.819,201.477,475.409z M201.667,484.227v-7.074h1.099v7.074H201.667
				z"/>
			<path style="fill:#9EB7C7;" d="M204.582,486.043l0.557-0.82c0.586,0.703,1.289,0.967,2.3,0.967c1.172,0,2.27-0.571,2.27-2.124
				v-1.011c-0.512,0.718-1.376,1.26-2.373,1.26c-1.845,0-3.149-1.377-3.149-3.662c0-2.271,1.289-3.676,3.149-3.676
				c0.952,0,1.802,0.468,2.373,1.244v-1.068h1.099v6.869c0,2.344-1.641,3.076-3.369,3.076
				C206.237,487.098,205.417,486.863,204.582,486.043z M209.708,482.19V479.1c-0.381-0.615-1.23-1.143-2.109-1.143
				c-1.421,0-2.271,1.128-2.271,2.695c0,1.553,0.849,2.695,2.271,2.695C208.478,483.348,209.328,482.806,209.708,482.19z"/>
			<path style="fill:#9EB7C7;" d="M217.413,484.227v-4.629c0-1.244-0.629-1.641-1.582-1.641c-0.865,0-1.685,0.527-2.095,1.1v5.17
				h-1.099v-7.074h1.099v1.025c0.498-0.586,1.464-1.201,2.519-1.201c1.48,0,2.256,0.746,2.256,2.284v4.966H217.413z"/>
			<path style="fill:#9EB7C7;" d="M219.933,480.682c0-2.05,1.465-3.705,3.486-3.705c2.138,0,3.399,1.67,3.399,3.793v0.279h-5.728
				c0.088,1.332,1.025,2.445,2.549,2.445c0.806,0,1.626-0.322,2.183-0.894l0.527,0.718c-0.703,0.703-1.655,1.084-2.813,1.084
				C221.441,484.402,219.933,482.894,219.933,480.682z M223.404,477.885c-1.509,0-2.256,1.273-2.314,2.357h4.643
				C225.718,479.188,225.015,477.885,223.404,477.885z"/>
			<path style="fill:#9EB7C7;" d="M233.35,484.227v-1.055c-0.527,0.718-1.392,1.23-2.388,1.23c-1.845,0-3.149-1.406-3.149-3.705
				c0-2.257,1.289-3.721,3.149-3.721c0.952,0,1.817,0.468,2.388,1.244v-3.764h1.098v9.77H233.35z M233.35,482.308V479.1
				c-0.396-0.615-1.245-1.143-2.124-1.143c-1.421,0-2.27,1.172-2.27,2.74c0,1.566,0.85,2.724,2.27,2.724
				C232.105,483.421,232.954,482.923,233.35,482.308z"/>
			<path style="fill:#9EB7C7;" d="M239.692,484.227v-9.77h1.099v3.764c0.572-0.776,1.421-1.244,2.388-1.244
				c1.846,0,3.149,1.464,3.149,3.721c0,2.299-1.304,3.705-3.149,3.705c-0.996,0-1.86-0.513-2.388-1.23v1.055H239.692z
				 M242.9,483.421c1.436,0,2.286-1.157,2.286-2.724c0-1.568-0.85-2.74-2.286-2.74c-0.864,0-1.729,0.527-2.109,1.143v3.208
				C241.171,482.923,242.036,483.421,242.9,483.421z"/>
			<path style="fill:#9EB7C7;" d="M247.528,485.999c0.161,0.073,0.425,0.117,0.601,0.117c0.483,0,0.805-0.161,1.055-0.747
				l0.468-1.069l-2.959-7.147h1.187l2.358,5.8l2.344-5.8h1.201l-3.545,8.51c-0.425,1.025-1.143,1.421-2.08,1.436
				c-0.234,0-0.601-0.044-0.806-0.103L247.528,485.999z"/>
		</g>
	</g>
</g>
</svg>
